<svg width="1973" height="450" viewBox="0 0 1973 450" fill="none" xmlns="http://www.w3.org/2000/svg">
<mask id="path-1-outside-1_147_2" maskUnits="userSpaceOnUse" x="412" y="105" width="1541" height="231" fill="black">
<rect fill="white" x="412" y="105" width="1541" height="231"/>
<path d="M579.5 330H552.2L442.4 163.5V330H415.1V120.6H442.4L552.2 286.8V120.6H579.5V330ZM771.838 165.6V330H744.538V305.7C739.338 314.1 732.038 320.7 722.638 325.5C713.438 330.1 703.238 332.4 692.038 332.4C679.238 332.4 667.738 329.8 657.538 324.6C647.338 319.2 639.238 311.2 633.238 300.6C627.438 290 624.538 277.1 624.538 261.9V165.6H651.538V258.3C651.538 274.5 655.638 287 663.838 295.8C672.038 304.4 683.238 308.7 697.438 308.7C712.038 308.7 723.538 304.2 731.938 295.2C740.338 286.2 744.538 273.1 744.538 255.9V165.6H771.838ZM876.132 332.7C863.532 332.7 852.232 330.6 842.232 326.4C832.232 322 824.332 316 818.532 308.4C812.732 300.6 809.532 291.7 808.932 281.7H837.132C837.932 289.9 841.732 296.6 848.532 301.8C855.532 307 864.632 309.6 875.832 309.6C886.232 309.6 894.432 307.3 900.432 302.7C906.432 298.1 909.432 292.3 909.432 285.3C909.432 278.1 906.232 272.8 899.832 269.4C893.432 265.8 883.532 262.3 870.132 258.9C857.932 255.7 847.932 252.5 840.132 249.3C832.532 245.9 825.932 241 820.332 234.6C814.932 228 812.232 219.4 812.232 208.8C812.232 200.4 814.732 192.7 819.732 185.7C824.732 178.7 831.832 173.2 841.032 169.2C850.232 165 860.732 162.9 872.532 162.9C890.732 162.9 905.432 167.5 916.632 176.7C927.832 185.9 933.832 198.5 934.632 214.5H907.332C906.732 205.9 903.232 199 896.832 193.8C890.632 188.6 882.232 186 871.632 186C861.832 186 854.032 188.1 848.232 192.3C842.432 196.5 839.532 202 839.532 208.8C839.532 214.2 841.232 218.7 844.632 222.3C848.232 225.7 852.632 228.5 857.832 230.7C863.232 232.7 870.632 235 880.032 237.6C891.832 240.8 901.432 244 908.832 247.2C916.232 250.2 922.532 254.8 927.732 261C933.132 267.2 935.932 275.3 936.132 285.3C936.132 294.3 933.632 302.4 928.632 309.6C923.632 316.8 916.532 322.5 907.332 326.7C898.332 330.7 887.932 332.7 876.132 332.7ZM964.47 247.2C964.47 230.4 967.87 215.7 974.67 203.1C981.47 190.3 990.77 180.4 1002.57 173.4C1014.57 166.4 1027.87 162.9 1042.47 162.9C1056.87 162.9 1069.37 166 1079.97 172.2C1090.57 178.4 1098.47 186.2 1103.67 195.6V165.6H1131.27V330H1103.67V299.4C1098.27 309 1090.17 317 1079.37 323.4C1068.77 329.6 1056.37 332.7 1042.17 332.7C1027.57 332.7 1014.37 329.1 1002.57 321.9C990.77 314.7 981.47 304.6 974.67 291.6C967.87 278.6 964.47 263.8 964.47 247.2ZM1103.67 247.5C1103.67 235.1 1101.17 224.3 1096.17 215.1C1091.17 205.9 1084.37 198.9 1075.77 194.1C1067.37 189.1 1058.07 186.6 1047.87 186.6C1037.67 186.6 1028.37 189 1019.97 193.8C1011.57 198.6 1004.87 205.6 999.87 214.8C994.87 224 992.37 234.8 992.37 247.2C992.37 259.8 994.87 270.8 999.87 280.2C1004.87 289.4 1011.57 296.5 1019.97 301.5C1028.37 306.3 1037.67 308.7 1047.87 308.7C1058.07 308.7 1067.37 306.3 1075.77 301.5C1084.37 296.5 1091.17 289.4 1096.17 280.2C1101.17 270.8 1103.67 259.9 1103.67 247.5ZM1301 283.5H1209.8L1193 330H1164.2L1239.8 122.1H1271.3L1346.6 330H1317.8L1301 283.5ZM1293.2 261.3L1255.4 155.7L1217.6 261.3H1293.2ZM1406.85 192.3C1411.65 182.9 1418.45 175.6 1427.25 170.4C1436.25 165.2 1447.15 162.6 1459.95 162.6V190.8H1452.75C1422.15 190.8 1406.85 207.4 1406.85 240.6V330H1379.55V165.6H1406.85V192.3ZM1524.77 188.1V285C1524.77 293 1526.47 298.7 1529.87 302.1C1533.27 305.3 1539.17 306.9 1547.57 306.9H1567.67V330H1543.07C1527.87 330 1516.47 326.5 1508.87 319.5C1501.27 312.5 1497.47 301 1497.47 285V188.1H1476.17V165.6H1497.47V124.2H1524.77V165.6H1567.67V188.1H1524.77ZM1682.34 162.6C1694.74 162.6 1705.94 165.3 1715.94 170.7C1725.94 175.9 1733.74 183.8 1739.34 194.4C1745.14 205 1748.04 217.9 1748.04 233.1V330H1721.04V237C1721.04 220.6 1716.94 208.1 1708.74 199.5C1700.54 190.7 1689.34 186.3 1675.14 186.3C1660.74 186.3 1649.24 190.8 1640.64 199.8C1632.24 208.8 1628.04 221.9 1628.04 239.1V330H1600.74V108H1628.04V189C1633.44 180.6 1640.84 174.1 1650.24 169.5C1659.84 164.9 1670.54 162.6 1682.34 162.6ZM1782.44 247.2C1782.44 230.4 1785.84 215.7 1792.64 203.1C1799.44 190.3 1808.74 180.4 1820.54 173.4C1832.54 166.4 1845.84 162.9 1860.44 162.9C1874.84 162.9 1887.34 166 1897.94 172.2C1908.54 178.4 1916.44 186.2 1921.64 195.6V165.6H1949.24V330H1921.64V299.4C1916.24 309 1908.14 317 1897.34 323.4C1886.74 329.6 1874.34 332.7 1860.14 332.7C1845.54 332.7 1832.34 329.1 1820.54 321.9C1808.74 314.7 1799.44 304.6 1792.64 291.6C1785.84 278.6 1782.44 263.8 1782.44 247.2ZM1921.64 247.5C1921.64 235.1 1919.14 224.3 1914.14 215.1C1909.14 205.9 1902.34 198.9 1893.74 194.1C1885.34 189.1 1876.04 186.6 1865.84 186.6C1855.64 186.6 1846.34 189 1837.94 193.8C1829.54 198.6 1822.84 205.6 1817.84 214.8C1812.84 224 1810.34 234.8 1810.34 247.2C1810.34 259.8 1812.84 270.8 1817.84 280.2C1822.84 289.4 1829.54 296.5 1837.94 301.5C1846.34 306.3 1855.64 308.7 1865.84 308.7C1876.04 308.7 1885.34 306.3 1893.74 301.5C1902.34 296.5 1909.14 289.4 1914.14 280.2C1919.14 270.8 1921.64 259.9 1921.64 247.5Z"/>
</mask>
<path d="M579.5 330H552.2L442.4 163.5V330H415.1V120.6H442.4L552.2 286.8V120.6H579.5V330ZM771.838 165.6V330H744.538V305.7C739.338 314.1 732.038 320.7 722.638 325.5C713.438 330.1 703.238 332.4 692.038 332.4C679.238 332.4 667.738 329.8 657.538 324.6C647.338 319.2 639.238 311.2 633.238 300.6C627.438 290 624.538 277.1 624.538 261.9V165.6H651.538V258.3C651.538 274.5 655.638 287 663.838 295.8C672.038 304.4 683.238 308.7 697.438 308.7C712.038 308.7 723.538 304.2 731.938 295.2C740.338 286.2 744.538 273.1 744.538 255.9V165.6H771.838ZM876.132 332.7C863.532 332.7 852.232 330.6 842.232 326.4C832.232 322 824.332 316 818.532 308.4C812.732 300.6 809.532 291.7 808.932 281.7H837.132C837.932 289.9 841.732 296.6 848.532 301.8C855.532 307 864.632 309.6 875.832 309.6C886.232 309.6 894.432 307.3 900.432 302.7C906.432 298.1 909.432 292.3 909.432 285.3C909.432 278.1 906.232 272.8 899.832 269.4C893.432 265.8 883.532 262.3 870.132 258.9C857.932 255.7 847.932 252.5 840.132 249.3C832.532 245.9 825.932 241 820.332 234.6C814.932 228 812.232 219.4 812.232 208.8C812.232 200.4 814.732 192.7 819.732 185.7C824.732 178.7 831.832 173.2 841.032 169.2C850.232 165 860.732 162.9 872.532 162.9C890.732 162.9 905.432 167.5 916.632 176.7C927.832 185.9 933.832 198.5 934.632 214.5H907.332C906.732 205.9 903.232 199 896.832 193.8C890.632 188.6 882.232 186 871.632 186C861.832 186 854.032 188.1 848.232 192.3C842.432 196.5 839.532 202 839.532 208.8C839.532 214.2 841.232 218.7 844.632 222.3C848.232 225.7 852.632 228.5 857.832 230.7C863.232 232.7 870.632 235 880.032 237.6C891.832 240.8 901.432 244 908.832 247.2C916.232 250.2 922.532 254.8 927.732 261C933.132 267.2 935.932 275.3 936.132 285.3C936.132 294.3 933.632 302.4 928.632 309.6C923.632 316.8 916.532 322.5 907.332 326.7C898.332 330.7 887.932 332.7 876.132 332.7ZM964.47 247.2C964.47 230.4 967.87 215.7 974.67 203.1C981.47 190.3 990.77 180.4 1002.57 173.4C1014.57 166.4 1027.87 162.9 1042.47 162.9C1056.87 162.9 1069.37 166 1079.97 172.2C1090.57 178.4 1098.47 186.2 1103.67 195.6V165.6H1131.27V330H1103.67V299.4C1098.27 309 1090.17 317 1079.37 323.4C1068.77 329.6 1056.37 332.7 1042.17 332.7C1027.57 332.7 1014.37 329.1 1002.57 321.9C990.77 314.7 981.47 304.6 974.67 291.6C967.87 278.6 964.47 263.8 964.47 247.2ZM1103.67 247.5C1103.67 235.1 1101.17 224.3 1096.17 215.1C1091.17 205.9 1084.37 198.9 1075.77 194.1C1067.37 189.1 1058.07 186.6 1047.87 186.6C1037.67 186.6 1028.37 189 1019.97 193.8C1011.57 198.6 1004.87 205.6 999.87 214.8C994.87 224 992.37 234.8 992.37 247.2C992.37 259.8 994.87 270.8 999.87 280.2C1004.87 289.4 1011.57 296.5 1019.97 301.5C1028.37 306.3 1037.67 308.7 1047.87 308.7C1058.07 308.7 1067.37 306.3 1075.77 301.5C1084.37 296.5 1091.17 289.4 1096.17 280.2C1101.17 270.8 1103.67 259.9 1103.67 247.5ZM1301 283.5H1209.8L1193 330H1164.2L1239.8 122.1H1271.3L1346.6 330H1317.8L1301 283.5ZM1293.2 261.3L1255.4 155.7L1217.6 261.3H1293.2ZM1406.85 192.3C1411.65 182.9 1418.45 175.6 1427.25 170.4C1436.25 165.2 1447.15 162.6 1459.95 162.6V190.8H1452.75C1422.15 190.8 1406.85 207.4 1406.85 240.6V330H1379.55V165.6H1406.85V192.3ZM1524.77 188.1V285C1524.77 293 1526.47 298.7 1529.87 302.1C1533.27 305.3 1539.17 306.9 1547.57 306.9H1567.67V330H1543.07C1527.87 330 1516.47 326.5 1508.87 319.5C1501.27 312.5 1497.47 301 1497.47 285V188.1H1476.17V165.6H1497.47V124.2H1524.77V165.6H1567.67V188.1H1524.77ZM1682.34 162.6C1694.74 162.6 1705.94 165.3 1715.94 170.7C1725.94 175.9 1733.74 183.8 1739.34 194.4C1745.14 205 1748.04 217.9 1748.04 233.1V330H1721.04V237C1721.04 220.6 1716.94 208.1 1708.74 199.5C1700.54 190.7 1689.34 186.3 1675.14 186.3C1660.74 186.3 1649.24 190.8 1640.64 199.8C1632.24 208.8 1628.04 221.9 1628.04 239.1V330H1600.74V108H1628.04V189C1633.44 180.6 1640.84 174.1 1650.24 169.5C1659.84 164.9 1670.54 162.6 1682.34 162.6ZM1782.44 247.2C1782.44 230.4 1785.84 215.7 1792.64 203.1C1799.44 190.3 1808.74 180.4 1820.54 173.4C1832.54 166.4 1845.84 162.9 1860.44 162.9C1874.84 162.9 1887.34 166 1897.94 172.2C1908.54 178.4 1916.44 186.2 1921.64 195.6V165.6H1949.24V330H1921.64V299.4C1916.24 309 1908.14 317 1897.34 323.4C1886.74 329.6 1874.34 332.7 1860.14 332.7C1845.54 332.7 1832.34 329.1 1820.54 321.9C1808.74 314.7 1799.44 304.6 1792.64 291.6C1785.84 278.6 1782.44 263.8 1782.44 247.2ZM1921.64 247.5C1921.64 235.1 1919.14 224.3 1914.14 215.1C1909.14 205.9 1902.34 198.9 1893.74 194.1C1885.34 189.1 1876.04 186.6 1865.84 186.6C1855.64 186.6 1846.34 189 1837.94 193.8C1829.54 198.6 1822.84 205.6 1817.84 214.8C1812.84 224 1810.34 234.8 1810.34 247.2C1810.34 259.8 1812.84 270.8 1817.84 280.2C1822.84 289.4 1829.54 296.5 1837.94 301.5C1846.34 306.3 1855.64 308.7 1865.84 308.7C1876.04 308.7 1885.34 306.3 1893.74 301.5C1902.34 296.5 1909.14 289.4 1914.14 280.2C1919.14 270.8 1921.64 259.9 1921.64 247.5Z" fill="#20128A"/>
<path d="M579.5 330V333H582.5V330H579.5ZM552.2 330L549.696 331.652L550.585 333H552.2V330ZM442.4 163.5L444.904 161.848L439.4 153.501V163.5H442.4ZM442.4 330V333H445.4V330H442.4ZM415.1 330H412.1V333H415.1V330ZM415.1 120.6V117.6H412.1V120.6H415.1ZM442.4 120.6L444.903 118.946L444.014 117.6H442.4V120.6ZM552.2 286.8L549.697 288.454L555.2 296.783V286.8H552.2ZM552.2 120.6V117.6H549.2V120.6H552.2ZM579.5 120.6H582.5V117.6H579.5V120.6ZM579.5 330V327H552.2V330V333H579.5V330ZM552.2 330L554.704 328.348L444.904 161.848L442.4 163.5L439.896 165.152L549.696 331.652L552.2 330ZM442.4 163.5H439.4V330H442.4H445.4V163.5H442.4ZM442.4 330V327H415.1V330V333H442.4V330ZM415.1 330H418.1V120.6H415.1H412.1V330H415.1ZM415.1 120.6V123.6H442.4V120.6V117.6H415.1V120.6ZM442.4 120.6L439.897 122.254L549.697 288.454L552.2 286.8L554.703 285.146L444.903 118.946L442.4 120.6ZM552.2 286.8H555.2V120.6H552.2H549.2V286.8H552.2ZM552.2 120.6V123.6H579.5V120.6V117.6H552.2V120.6ZM579.5 120.6H576.5V330H579.5H582.5V120.6H579.5ZM771.838 165.6H774.838V162.6H771.838V165.6ZM771.838 330V333H774.838V330H771.838ZM744.538 330H741.538V333H744.538V330ZM744.538 305.7H747.538V295.154L741.987 304.121L744.538 305.7ZM722.638 325.5L723.979 328.183L723.991 328.178L724.002 328.172L722.638 325.5ZM657.538 324.6L656.134 327.251L656.154 327.262L656.175 327.273L657.538 324.6ZM633.238 300.6L630.606 302.04L630.616 302.059L630.627 302.078L633.238 300.6ZM624.538 165.6V162.6H621.538V165.6H624.538ZM651.538 165.6H654.538V162.6H651.538V165.6ZM663.837 295.8L661.643 297.845L661.654 297.858L661.666 297.87L663.837 295.8ZM731.938 295.2L729.744 293.153V293.153L731.938 295.2ZM744.538 165.6V162.6H741.538V165.6H744.538ZM771.838 165.6H768.838V330H771.838H774.838V165.6H771.838ZM771.838 330V327H744.538V330V333H771.838V330ZM744.538 330H747.538V305.7H744.538H741.538V330H744.538ZM744.538 305.7L741.987 304.121C737.095 312.023 730.22 318.26 721.273 322.828L722.638 325.5L724.002 328.172C733.855 323.14 741.58 316.177 747.088 307.279L744.538 305.7ZM722.638 325.5L721.296 322.817C712.549 327.19 702.814 329.4 692.038 329.4V332.4V335.4C703.661 335.4 714.326 333.01 723.979 328.183L722.638 325.5ZM692.038 332.4V329.4C679.655 329.4 668.63 326.888 658.9 321.927L657.538 324.6L656.175 327.273C666.845 332.712 678.82 335.4 692.038 335.4V332.4ZM657.538 324.6L658.941 321.949C649.276 316.832 641.583 309.253 635.848 299.122L633.238 300.6L630.627 302.078C636.892 313.147 645.399 321.568 656.134 327.251L657.538 324.6ZM633.238 300.6L635.869 299.16C630.365 289.101 627.538 276.724 627.538 261.9H624.538H621.538C621.538 277.476 624.51 290.899 630.606 302.04L633.238 300.6ZM624.538 261.9H627.538V165.6H624.538H621.538V261.9H624.538ZM624.538 165.6V168.6H651.538V165.6V162.6H624.538V165.6ZM651.538 165.6H648.538V258.3H651.538H654.538V165.6H651.538ZM651.538 258.3H648.538C648.538 274.991 652.768 288.321 661.643 297.845L663.837 295.8L666.032 293.755C658.507 285.679 654.538 274.009 654.538 258.3H651.538ZM663.837 295.8L661.666 297.87C670.542 307.178 682.59 311.7 697.438 311.7V308.7V305.7C683.885 305.7 673.533 301.622 666.009 293.73L663.837 295.8ZM697.438 308.7V311.7C712.701 311.7 725.058 306.968 734.131 297.247L731.938 295.2L729.744 293.153C722.017 301.432 711.374 305.7 697.438 305.7V308.7ZM731.938 295.2L734.131 297.247C743.224 287.504 747.538 273.557 747.538 255.9H744.538H741.538C741.538 272.643 737.451 284.896 729.744 293.153L731.938 295.2ZM744.538 255.9H747.538V165.6H744.538H741.538V255.9H744.538ZM744.538 165.6V168.6H771.838V165.6V162.6H744.538V165.6ZM842.232 326.4L841.024 329.146L841.047 329.156L841.07 329.166L842.232 326.4ZM818.532 308.4L816.125 310.19L816.136 310.205L816.147 310.22L818.532 308.4ZM808.932 281.7V278.7H805.747L805.937 281.88L808.932 281.7ZM837.132 281.7L840.118 281.409L839.854 278.7H837.132V281.7ZM848.532 301.8L846.71 304.183L846.726 304.196L846.743 304.208L848.532 301.8ZM899.832 269.4L898.361 272.015L898.393 272.032L898.425 272.049L899.832 269.4ZM870.132 258.9L869.371 261.802L869.383 261.805L869.394 261.808L870.132 258.9ZM840.132 249.3L838.907 252.038L838.95 252.058L838.993 252.076L840.132 249.3ZM820.332 234.6L818.01 236.5L818.042 236.538L818.074 236.576L820.332 234.6ZM819.732 185.7L817.291 183.956V183.956L819.732 185.7ZM841.032 169.2L842.228 171.951L842.253 171.94L842.278 171.929L841.032 169.2ZM934.632 214.5V217.5H937.786L937.628 214.35L934.632 214.5ZM907.332 214.5L904.339 214.709L904.534 217.5H907.332V214.5ZM896.832 193.8L894.904 196.099L894.922 196.114L894.94 196.128L896.832 193.8ZM848.232 192.3L846.473 189.87V189.87L848.232 192.3ZM844.632 222.3L842.451 224.36L842.51 224.422L842.572 224.481L844.632 222.3ZM857.832 230.7L856.663 233.463L856.726 233.49L856.79 233.513L857.832 230.7ZM880.032 237.6L879.232 240.491L879.24 240.493L879.247 240.495L880.032 237.6ZM908.832 247.2L907.641 249.954L907.673 249.967L907.705 249.98L908.832 247.2ZM927.732 261L925.433 262.928L925.451 262.949L925.47 262.97L927.732 261ZM936.132 285.3H939.132V285.27L939.131 285.24L936.132 285.3ZM928.632 309.6L926.168 307.889V307.889L928.632 309.6ZM907.332 326.7L908.55 329.441L908.564 329.435L908.578 329.429L907.332 326.7ZM876.132 332.7V329.7C863.867 329.7 852.971 327.657 843.394 323.634L842.232 326.4L841.07 329.166C851.493 333.543 863.197 335.7 876.132 335.7V332.7ZM842.232 326.4L843.44 323.654C833.837 319.429 826.368 313.722 820.917 306.58L818.532 308.4L816.147 310.22C822.296 318.278 830.627 324.571 841.024 329.146L842.232 326.4ZM818.532 308.4L820.939 306.61C815.499 299.293 812.493 290.957 811.927 281.52L808.932 281.7L805.937 281.88C806.571 292.443 809.965 301.907 816.125 310.19L818.532 308.4ZM808.932 281.7V284.7H837.132V281.7V278.7H808.932V281.7ZM837.132 281.7L834.146 281.991C835.031 291.056 839.278 298.5 846.71 304.183L848.532 301.8L850.354 299.417C844.186 294.7 840.834 288.744 840.118 281.409L837.132 281.7ZM848.532 301.8L846.743 304.208C854.391 309.889 864.172 312.6 875.832 312.6V309.6V306.6C865.092 306.6 856.673 304.111 850.321 299.392L848.532 301.8ZM875.832 309.6V312.6C886.648 312.6 895.568 310.209 902.257 305.081L900.432 302.7L898.607 300.319C893.296 304.391 885.816 306.6 875.832 306.6V309.6ZM900.432 302.7L902.257 305.081C908.929 299.966 912.432 293.316 912.432 285.3H909.432H906.432C906.432 291.284 903.935 296.234 898.607 300.319L900.432 302.7ZM909.432 285.3H912.432C912.432 281.244 911.526 277.564 909.6 274.374C907.675 271.186 904.836 268.661 901.24 266.751L899.832 269.4L898.425 272.049C901.228 273.539 903.189 275.364 904.464 277.476C905.738 279.586 906.432 282.156 906.432 285.3H909.432ZM899.832 269.4L901.303 266.785C894.552 262.988 884.343 259.411 870.87 255.992L870.132 258.9L869.394 261.808C882.721 265.189 892.313 268.612 898.361 272.015L899.832 269.4ZM870.132 258.9L870.893 255.998C858.765 252.817 848.904 249.656 841.271 246.524L840.132 249.3L838.993 252.076C846.96 255.344 857.099 258.583 869.371 261.802L870.132 258.9ZM840.132 249.3L841.357 246.562C834.161 243.342 827.911 238.706 822.59 232.624L820.332 234.6L818.074 236.576C823.953 243.294 830.903 248.458 838.907 252.038L840.132 249.3ZM820.332 234.6L822.654 232.7C817.791 226.756 815.232 218.88 815.232 208.8H812.232H809.232C809.232 219.919 812.073 229.244 818.01 236.5L820.332 234.6ZM812.232 208.8H815.232C815.232 201.041 817.527 193.948 822.173 187.444L819.732 185.7L817.291 183.956C811.937 191.452 809.232 199.759 809.232 208.8H812.232ZM819.732 185.7L822.173 187.444C826.808 180.955 833.443 175.771 842.228 171.951L841.032 169.2L839.836 166.449C830.221 170.629 822.656 176.445 817.291 183.956L819.732 185.7ZM841.032 169.2L842.278 171.929C851.027 167.935 861.091 165.9 872.532 165.9V162.9V159.9C860.373 159.9 849.437 162.065 839.786 166.471L841.032 169.2ZM872.532 162.9V165.9C890.22 165.9 904.19 170.362 914.728 179.018L916.632 176.7L918.536 174.382C906.674 164.638 891.245 159.9 872.532 159.9V162.9ZM916.632 176.7L914.728 179.018C925.202 187.622 930.873 199.395 931.636 214.65L934.632 214.5L937.628 214.35C936.791 197.605 930.462 184.178 918.536 174.382L916.632 176.7ZM934.632 214.5V211.5H907.332V214.5V217.5H934.632V214.5ZM907.332 214.5L910.325 214.291C909.67 204.905 905.801 197.222 898.724 191.472L896.832 193.8L894.94 196.128C900.663 200.778 903.794 206.895 904.339 214.709L907.332 214.5ZM896.832 193.8L898.76 191.501C891.871 185.724 882.716 183 871.632 183V186V189C881.748 189 889.393 191.476 894.904 196.099L896.832 193.8ZM871.632 186V183C861.428 183 852.942 185.185 846.473 189.87L848.232 192.3L849.992 194.73C855.122 191.015 862.236 189 871.632 189V186ZM848.232 192.3L846.473 189.87C839.942 194.599 836.532 200.979 836.532 208.8H839.532H842.532C842.532 203.02 844.922 198.401 849.992 194.73L848.232 192.3ZM839.532 208.8H836.532C836.532 214.89 838.475 220.15 842.451 224.36L844.632 222.3L846.813 220.24C843.989 217.25 842.532 213.51 842.532 208.8H839.532ZM844.632 222.3L842.572 224.481C846.466 228.158 851.179 231.143 856.663 233.463L857.832 230.7L859.001 227.937C854.085 225.857 849.998 223.242 846.692 220.119L844.632 222.3ZM857.832 230.7L856.79 233.513C862.305 235.556 869.798 237.882 879.232 240.491L880.032 237.6L880.832 234.709C871.466 232.118 864.159 229.844 858.874 227.887L857.832 230.7ZM880.032 237.6L879.247 240.495C890.971 243.675 900.422 246.832 907.641 249.954L908.832 247.2L910.023 244.446C902.443 241.168 892.693 237.925 880.817 234.705L880.032 237.6ZM908.832 247.2L907.705 249.98C914.644 252.794 920.544 257.098 925.433 262.928L927.732 261L930.031 259.072C924.52 252.502 917.82 247.606 909.959 244.42L908.832 247.2ZM927.732 261L925.47 262.97C930.313 268.532 932.944 275.905 933.133 285.36L936.132 285.3L939.131 285.24C938.921 274.695 935.951 265.868 929.994 259.03L927.732 261ZM936.132 285.3H933.132C933.132 293.706 930.809 301.205 926.168 307.889L928.632 309.6L931.096 311.311C936.455 303.595 939.132 294.894 939.132 285.3H936.132ZM928.632 309.6L926.168 307.889C921.52 314.582 914.873 319.96 906.086 323.971L907.332 326.7L908.578 329.429C918.192 325.04 925.744 319.018 931.096 311.311L928.632 309.6ZM907.332 326.7L906.114 323.959C897.565 327.758 887.594 329.7 876.132 329.7V332.7V335.7C888.27 335.7 899.099 333.642 908.55 329.441L907.332 326.7ZM974.67 203.1L977.31 204.525L977.315 204.516L977.32 204.507L974.67 203.1ZM1002.57 173.4L1001.06 170.809L1001.05 170.814L1001.04 170.82L1002.57 173.4ZM1079.97 172.2L1078.46 174.79V174.79L1079.97 172.2ZM1103.67 195.6L1101.05 197.052L1106.67 195.6H1103.67ZM1103.67 165.6V162.6H1100.67V165.6H1103.67ZM1131.27 165.6H1134.27V162.6H1131.27V165.6ZM1131.27 330V333H1134.27V330H1131.27ZM1103.67 330H1100.67V333H1103.67V330ZM1103.67 299.4H1106.67V287.947L1101.06 297.929L1103.67 299.4ZM1079.37 323.4L1080.88 325.99L1080.89 325.985L1080.9 325.981L1079.37 323.4ZM1002.57 321.9L1001.01 324.461V324.461L1002.57 321.9ZM974.67 291.6L977.329 290.21V290.21L974.67 291.6ZM1075.77 194.1L1074.24 196.678L1074.27 196.699L1074.31 196.72L1075.77 194.1ZM1019.97 193.8L1018.48 191.195V191.195L1019.97 193.8ZM999.87 214.8L1002.51 216.233V216.233L999.87 214.8ZM999.87 280.2L997.222 281.609L997.228 281.621L997.234 281.633L999.87 280.2ZM1019.97 301.5L1018.44 304.078L1018.46 304.091L1018.48 304.105L1019.97 301.5ZM1075.77 301.5L1077.26 304.105L1077.27 304.099L1077.28 304.094L1075.77 301.5ZM1096.17 280.2L1098.81 281.633L1098.81 281.621L1098.82 281.609L1096.17 280.2ZM964.47 247.2H967.47C967.47 230.811 970.785 216.617 977.31 204.525L974.67 203.1L972.03 201.675C964.956 214.783 961.47 229.989 961.47 247.2H964.47ZM974.67 203.1L977.32 204.507C983.877 192.165 992.802 182.683 1004.1 175.98L1002.57 173.4L1001.04 170.82C988.739 178.117 979.064 188.435 972.021 201.693L974.67 203.1ZM1002.57 173.4L1004.08 175.991C1015.6 169.273 1028.37 165.9 1042.47 165.9V162.9V159.9C1027.37 159.9 1013.54 163.527 1001.06 170.809L1002.57 173.4ZM1042.47 162.9V165.9C1056.43 165.9 1068.39 168.902 1078.46 174.79L1079.97 172.2L1081.48 169.61C1070.35 163.098 1057.31 159.9 1042.47 159.9V162.9ZM1079.97 172.2L1078.46 174.79C1088.66 180.757 1096.14 188.189 1101.05 197.052L1103.67 195.6L1106.3 194.148C1100.8 184.211 1092.48 176.043 1081.48 169.61L1079.97 172.2ZM1103.67 195.6H1106.67V165.6H1103.67H1100.67V195.6H1103.67ZM1103.67 165.6V168.6H1131.27V165.6V162.6H1103.67V165.6ZM1131.27 165.6H1128.27V330H1131.27H1134.27V165.6H1131.27ZM1131.27 330V327H1103.67V330V333H1131.27V330ZM1103.67 330H1106.67V299.4H1103.67H1100.67V330H1103.67ZM1103.67 299.4L1101.06 297.929C1095.95 307.009 1088.25 314.649 1077.84 320.819L1079.37 323.4L1080.9 325.981C1092.09 319.351 1100.59 310.991 1106.29 300.871L1103.67 299.4ZM1079.37 323.4L1077.86 320.81C1067.78 326.702 1055.92 329.7 1042.17 329.7V332.7V335.7C1056.82 335.7 1069.76 332.498 1080.88 325.99L1079.37 323.4ZM1042.17 332.7V329.7C1028.09 329.7 1015.44 326.236 1004.13 319.339L1002.57 321.9L1001.01 324.461C1013.31 331.964 1027.05 335.7 1042.17 335.7V332.7ZM1002.57 321.9L1004.13 319.339C992.826 312.44 983.892 302.758 977.329 290.21L974.67 291.6L972.012 292.99C979.048 306.442 988.714 316.96 1001.01 324.461L1002.57 321.9ZM974.67 291.6L977.329 290.21C970.781 277.692 967.47 263.38 967.47 247.2H964.47H961.47C961.47 264.22 964.96 279.508 972.012 292.99L974.67 291.6ZM1103.67 247.5H1106.67C1106.67 234.692 1104.09 223.382 1098.81 213.667L1096.17 215.1L1093.53 216.533C1098.26 225.218 1100.67 235.508 1100.67 247.5H1103.67ZM1096.17 215.1L1098.81 213.667C1093.55 204.002 1086.36 196.575 1077.23 191.48L1075.77 194.1L1074.31 196.72C1082.38 201.225 1088.79 207.798 1093.53 216.533L1096.17 215.1ZM1075.77 194.1L1077.3 191.522C1068.42 186.234 1058.59 183.6 1047.87 183.6V186.6V189.6C1057.55 189.6 1066.32 191.966 1074.24 196.678L1075.77 194.1ZM1047.87 186.6V183.6C1037.18 183.6 1027.36 186.122 1018.48 191.195L1019.97 193.8L1021.46 196.405C1029.38 191.878 1038.16 189.6 1047.87 189.6V186.6ZM1019.97 193.8L1018.48 191.195C1009.56 196.295 1002.48 203.72 997.234 213.367L999.87 214.8L1002.51 216.233C1007.26 207.48 1013.58 200.905 1021.46 196.405L1019.97 193.8ZM999.87 214.8L997.234 213.367C991.955 223.082 989.37 234.392 989.37 247.2H992.37H995.37C995.37 235.208 997.786 224.918 1002.51 216.233L999.87 214.8ZM992.37 247.2H989.37C989.37 260.201 991.952 271.702 997.222 281.609L999.87 280.2L1002.52 278.791C997.789 269.898 995.37 259.399 995.37 247.2H992.37ZM999.87 280.2L997.234 281.633C1002.47 291.271 1009.54 298.782 1018.44 304.078L1019.97 301.5L1021.5 298.922C1013.6 294.218 1007.27 287.529 1002.51 278.767L999.87 280.2ZM1019.97 301.5L1018.48 304.105C1027.36 309.178 1037.18 311.7 1047.87 311.7V308.7V305.7C1038.16 305.7 1029.38 303.422 1021.46 298.895L1019.97 301.5ZM1047.87 308.7V311.7C1058.56 311.7 1068.38 309.178 1077.26 304.105L1075.77 301.5L1074.28 298.895C1066.36 303.422 1057.58 305.7 1047.87 305.7V308.7ZM1075.77 301.5L1077.28 304.094C1086.38 298.802 1093.56 291.289 1098.81 281.633L1096.17 280.2L1093.53 278.767C1088.78 287.511 1082.36 294.198 1074.26 298.906L1075.77 301.5ZM1096.17 280.2L1098.82 281.609C1104.08 271.709 1106.67 260.31 1106.67 247.5H1103.67H1100.67C1100.67 259.49 1098.26 269.891 1093.52 278.791L1096.17 280.2ZM1301 283.5L1303.83 282.481L1303.11 280.5H1301V283.5ZM1209.8 283.5V280.5H1207.7L1206.98 282.481L1209.8 283.5ZM1193 330V333H1195.11L1195.83 331.019L1193 330ZM1164.2 330L1161.39 328.975L1159.92 333H1164.2V330ZM1239.8 122.1V119.1H1237.7L1236.99 121.075L1239.8 122.1ZM1271.3 122.1L1274.13 121.078L1273.41 119.1H1271.3V122.1ZM1346.6 330V333H1350.88L1349.43 328.978L1346.6 330ZM1317.8 330L1314.98 331.019L1315.7 333H1317.8V330ZM1293.2 261.3V264.3H1297.46L1296.03 260.289L1293.2 261.3ZM1255.4 155.7L1258.23 154.689L1255.4 146.798L1252.58 154.689L1255.4 155.7ZM1217.6 261.3L1214.78 260.289L1213.34 264.3H1217.6V261.3ZM1301 283.5V280.5H1209.8V283.5V286.5H1301V283.5ZM1209.8 283.5L1206.98 282.481L1190.18 328.981L1193 330L1195.83 331.019L1212.63 284.519L1209.8 283.5ZM1193 330V327H1164.2V330V333H1193V330ZM1164.2 330L1167.02 331.025L1242.62 123.125L1239.8 122.1L1236.99 121.075L1161.39 328.975L1164.2 330ZM1239.8 122.1V125.1H1271.3V122.1V119.1H1239.8V122.1ZM1271.3 122.1L1268.48 123.122L1343.78 331.022L1346.6 330L1349.43 328.978L1274.13 121.078L1271.3 122.1ZM1346.6 330V327H1317.8V330V333H1346.6V330ZM1317.8 330L1320.63 328.981L1303.83 282.481L1301 283.5L1298.18 284.519L1314.98 331.019L1317.8 330ZM1293.2 261.3L1296.03 260.289L1258.23 154.689L1255.4 155.7L1252.58 156.711L1290.38 262.311L1293.2 261.3ZM1255.4 155.7L1252.58 154.689L1214.78 260.289L1217.6 261.3L1220.43 262.311L1258.23 156.711L1255.4 155.7ZM1217.6 261.3V264.3H1293.2V261.3V258.3H1217.6V261.3ZM1406.85 192.3H1403.85L1409.52 193.664L1406.85 192.3ZM1427.25 170.4L1425.75 167.802L1425.74 167.81L1425.73 167.817L1427.25 170.4ZM1459.95 162.6H1462.95V159.6H1459.95V162.6ZM1459.95 190.8V193.8H1462.95V190.8H1459.95ZM1406.85 330V333H1409.85V330H1406.85ZM1379.55 330H1376.55V333H1379.55V330ZM1379.55 165.6V162.6H1376.55V165.6H1379.55ZM1406.85 165.6H1409.85V162.6H1406.85V165.6ZM1406.85 192.3L1409.52 193.664C1414.08 184.753 1420.49 177.884 1428.78 172.983L1427.25 170.4L1425.73 167.817C1416.42 173.316 1409.23 181.047 1404.18 190.936L1406.85 192.3ZM1427.25 170.4L1428.75 172.998C1437.2 168.116 1447.56 165.6 1459.95 165.6V162.6V159.6C1446.75 159.6 1435.3 162.284 1425.75 167.802L1427.25 170.4ZM1459.95 162.6H1456.95V190.8H1459.95H1462.95V162.6H1459.95ZM1459.95 190.8V187.8H1452.75V190.8V193.8H1459.95V190.8ZM1452.75 190.8V187.8C1436.93 187.8 1424.52 192.105 1416.12 201.217C1407.77 210.283 1403.85 223.595 1403.85 240.6H1406.85H1409.85C1409.85 224.404 1413.59 212.817 1420.53 205.283C1427.44 197.795 1437.98 193.8 1452.75 193.8V190.8ZM1406.85 240.6H1403.85V330H1406.85H1409.85V240.6H1406.85ZM1406.85 330V327H1379.55V330V333H1406.85V330ZM1379.55 330H1382.55V165.6H1379.55H1376.55V330H1379.55ZM1379.55 165.6V168.6H1406.85V165.6V162.6H1379.55V165.6ZM1406.85 165.6H1403.85V192.3H1406.85H1409.85V165.6H1406.85ZM1524.77 188.1V185.1H1521.77V188.1H1524.77ZM1529.87 302.1L1527.75 304.221L1527.78 304.253L1527.81 304.285L1529.87 302.1ZM1567.67 306.9H1570.67V303.9H1567.67V306.9ZM1567.67 330V333H1570.67V330H1567.67ZM1497.47 188.1H1500.47V185.1H1497.47V188.1ZM1476.17 188.1H1473.17V191.1H1476.17V188.1ZM1476.17 165.6V162.6H1473.17V165.6H1476.17ZM1497.47 165.6V168.6H1500.47V165.6H1497.47ZM1497.47 124.2V121.2H1494.47V124.2H1497.47ZM1524.77 124.2H1527.77V121.2H1524.77V124.2ZM1524.77 165.6H1521.77V168.6H1524.77V165.6ZM1567.67 165.6H1570.67V162.6H1567.67V165.6ZM1567.67 188.1V191.1H1570.67V188.1H1567.67ZM1524.77 188.1H1521.77V285H1524.77H1527.77V188.1H1524.77ZM1524.77 285H1521.77C1521.77 293.296 1523.51 299.983 1527.75 304.221L1529.87 302.1L1531.99 299.979C1529.43 297.417 1527.77 292.704 1527.77 285H1524.77ZM1529.87 302.1L1527.81 304.285C1532.07 308.293 1538.96 309.9 1547.57 309.9V306.9V303.9C1539.38 303.9 1534.46 302.307 1531.92 299.915L1529.87 302.1ZM1547.57 306.9V309.9H1567.67V306.9V303.9H1547.57V306.9ZM1567.67 306.9H1564.67V330H1567.67H1570.67V306.9H1567.67ZM1567.67 330V327H1543.07V330V333H1567.67V330ZM1543.07 330V327C1528.27 327 1517.73 323.588 1510.9 317.293L1508.87 319.5L1506.83 321.707C1515.2 329.412 1527.46 333 1543.07 333V330ZM1508.87 319.5L1510.9 317.293C1504.19 311.11 1500.47 300.616 1500.47 285H1497.47H1494.47C1494.47 301.384 1498.35 313.89 1506.83 321.707L1508.87 319.5ZM1497.47 285H1500.47V188.1H1497.47H1494.47V285H1497.47ZM1497.47 188.1V185.1H1476.17V188.1V191.1H1497.47V188.1ZM1476.17 188.1H1479.17V165.6H1476.17H1473.17V188.1H1476.17ZM1476.17 165.6V168.6H1497.47V165.6V162.6H1476.17V165.6ZM1497.47 165.6H1500.47V124.2H1497.47H1494.47V165.6H1497.47ZM1497.47 124.2V127.2H1524.77V124.2V121.2H1497.47V124.2ZM1524.77 124.2H1521.77V165.6H1524.77H1527.77V124.2H1524.77ZM1524.77 165.6V168.6H1567.67V165.6V162.6H1524.77V165.6ZM1567.67 165.6H1564.67V188.1H1567.67H1570.67V165.6H1567.67ZM1567.67 188.1V185.1H1524.77V188.1V191.1H1567.67V188.1ZM1715.94 170.7L1714.52 173.34L1714.54 173.351L1714.56 173.362L1715.94 170.7ZM1739.34 194.4L1736.69 195.801L1736.7 195.821L1736.71 195.84L1739.34 194.4ZM1748.04 330V333H1751.04V330H1748.04ZM1721.04 330H1718.04V333H1721.04V330ZM1708.74 199.5L1706.55 201.545L1706.56 201.558L1706.57 201.57L1708.74 199.5ZM1640.64 199.8L1638.48 197.727L1638.46 197.74L1638.45 197.753L1640.64 199.8ZM1628.04 330V333H1631.04V330H1628.04ZM1600.74 330H1597.74V333H1600.74V330ZM1600.74 108V105H1597.74V108H1600.74ZM1628.04 108H1631.04V105H1628.04V108ZM1628.04 189H1625.04V199.214L1630.57 190.622L1628.04 189ZM1650.24 169.5L1648.95 166.795L1648.94 166.8L1648.93 166.805L1650.24 169.5ZM1682.34 162.6V165.6C1694.29 165.6 1705 168.197 1714.52 173.34L1715.94 170.7L1717.37 168.06C1706.89 162.403 1695.2 159.6 1682.34 159.6V162.6ZM1715.94 170.7L1714.56 173.362C1723.98 178.262 1731.36 185.704 1736.69 195.801L1739.34 194.4L1742 192.999C1736.13 181.896 1727.9 173.538 1717.33 168.038L1715.94 170.7ZM1739.34 194.4L1736.71 195.84C1742.22 205.899 1745.04 218.276 1745.04 233.1H1748.04H1751.04C1751.04 217.524 1748.07 204.101 1741.98 192.96L1739.34 194.4ZM1748.04 233.1H1745.04V330H1748.04H1751.04V233.1H1748.04ZM1748.04 330V327H1721.04V330V333H1748.04V330ZM1721.04 330H1724.04V237H1721.04H1718.04V330H1721.04ZM1721.04 237H1724.04C1724.04 220.126 1719.82 206.771 1710.92 197.43L1708.74 199.5L1706.57 201.57C1714.07 209.429 1718.04 221.074 1718.04 237H1721.04ZM1708.74 199.5L1710.94 197.455C1702.07 187.936 1690.01 183.3 1675.14 183.3V186.3V189.3C1688.68 189.3 1699.02 193.464 1706.55 201.545L1708.74 199.5ZM1675.14 186.3V183.3C1660.07 183.3 1647.73 188.041 1638.48 197.727L1640.64 199.8L1642.81 201.873C1650.76 193.559 1661.42 189.3 1675.14 189.3V186.3ZM1640.64 199.8L1638.45 197.753C1629.36 207.496 1625.04 221.443 1625.04 239.1H1628.04H1631.04C1631.04 222.357 1635.13 210.104 1642.84 201.847L1640.64 199.8ZM1628.04 239.1H1625.04V330H1628.04H1631.04V239.1H1628.04ZM1628.04 330V327H1600.74V330V333H1628.04V330ZM1600.74 330H1603.74V108H1600.74H1597.74V330H1600.74ZM1600.74 108V111H1628.04V108V105H1600.74V108ZM1628.04 108H1625.04V189H1628.04H1631.04V108H1628.04ZM1628.04 189L1630.57 190.622C1635.66 182.706 1642.63 176.566 1651.56 172.195L1650.24 169.5L1648.93 166.805C1639.06 171.634 1631.23 178.494 1625.52 187.378L1628.04 189ZM1650.24 169.5L1651.54 172.205C1660.69 167.82 1670.94 165.6 1682.34 165.6V162.6V159.6C1670.15 159.6 1658.99 161.98 1648.95 166.795L1650.24 169.5ZM1792.64 203.1L1795.28 204.525L1795.28 204.516L1795.29 204.507L1792.64 203.1ZM1820.54 173.4L1819.03 170.809L1819.02 170.814L1819.01 170.82L1820.54 173.4ZM1897.94 172.2L1896.42 174.79V174.79L1897.94 172.2ZM1921.64 195.6L1919.01 197.052L1924.64 195.6H1921.64ZM1921.64 165.6V162.6H1918.64V165.6H1921.64ZM1949.24 165.6H1952.24V162.6H1949.24V165.6ZM1949.24 330V333H1952.24V330H1949.24ZM1921.64 330H1918.64V333H1921.64V330ZM1921.64 299.4H1924.64V287.947L1919.02 297.929L1921.64 299.4ZM1897.34 323.4L1898.85 325.99L1898.86 325.985L1898.87 325.981L1897.34 323.4ZM1820.54 321.9L1818.98 324.461V324.461L1820.54 321.9ZM1792.64 291.6L1795.3 290.21V290.21L1792.64 291.6ZM1893.74 194.1L1892.2 196.678L1892.24 196.699L1892.28 196.72L1893.74 194.1ZM1837.94 193.8L1836.45 191.195V191.195L1837.94 193.8ZM1817.84 214.8L1820.47 216.233V216.233L1817.84 214.8ZM1817.84 280.2L1815.19 281.609L1815.2 281.621L1815.2 281.633L1817.84 280.2ZM1837.94 301.5L1836.4 304.078L1836.43 304.091L1836.45 304.105L1837.94 301.5ZM1893.74 301.5L1895.23 304.105L1895.24 304.099L1895.25 304.094L1893.74 301.5ZM1914.14 280.2L1916.77 281.633L1916.78 281.621L1916.79 281.609L1914.14 280.2ZM1782.44 247.2H1785.44C1785.44 230.811 1788.75 216.617 1795.28 204.525L1792.64 203.1L1790 201.675C1782.92 214.783 1779.44 229.989 1779.44 247.2H1782.44ZM1792.64 203.1L1795.29 204.507C1801.85 192.165 1810.77 182.683 1822.07 175.98L1820.54 173.4L1819.01 170.82C1806.71 178.117 1797.03 188.435 1789.99 201.693L1792.64 203.1ZM1820.54 173.4L1822.05 175.991C1833.57 169.273 1846.34 165.9 1860.44 165.9V162.9V159.9C1845.34 159.9 1831.51 163.527 1819.03 170.809L1820.54 173.4ZM1860.44 162.9V165.9C1874.4 165.9 1886.36 168.902 1896.42 174.79L1897.94 172.2L1899.45 169.61C1888.32 163.098 1875.28 159.9 1860.44 159.9V162.9ZM1897.94 172.2L1896.42 174.79C1906.63 180.757 1914.11 188.189 1919.01 197.052L1921.64 195.6L1924.26 194.148C1918.77 184.211 1910.45 176.043 1899.45 169.61L1897.94 172.2ZM1921.64 195.6H1924.64V165.6H1921.64H1918.64V195.6H1921.64ZM1921.64 165.6V168.6H1949.24V165.6V162.6H1921.64V165.6ZM1949.24 165.6H1946.24V330H1949.24H1952.24V165.6H1949.24ZM1949.24 330V327H1921.64V330V333H1949.24V330ZM1921.64 330H1924.64V299.4H1921.64H1918.64V330H1921.64ZM1921.64 299.4L1919.02 297.929C1913.92 307.009 1906.22 314.649 1895.81 320.819L1897.34 323.4L1898.87 325.981C1910.06 319.351 1918.56 310.991 1924.25 300.871L1921.64 299.4ZM1897.34 323.4L1895.82 320.81C1885.75 326.702 1873.89 329.7 1860.14 329.7V332.7V335.7C1874.79 335.7 1887.73 332.498 1898.85 325.99L1897.34 323.4ZM1860.14 332.7V329.7C1846.06 329.7 1833.4 326.236 1822.1 319.339L1820.54 321.9L1818.98 324.461C1831.27 331.964 1845.02 335.7 1860.14 335.7V332.7ZM1820.54 321.9L1822.1 319.339C1810.8 312.44 1801.86 302.758 1795.3 290.21L1792.64 291.6L1789.98 292.99C1797.02 306.442 1806.68 316.96 1818.98 324.461L1820.54 321.9ZM1792.64 291.6L1795.3 290.21C1788.75 277.692 1785.44 263.38 1785.44 247.2H1782.44H1779.44C1779.44 264.22 1782.93 279.508 1789.98 292.99L1792.64 291.6ZM1921.64 247.5H1924.64C1924.64 234.692 1922.05 223.382 1916.77 213.667L1914.14 215.1L1911.5 216.533C1916.22 225.218 1918.64 235.508 1918.64 247.5H1921.64ZM1914.14 215.1L1916.77 213.667C1911.52 204.002 1904.33 196.575 1895.2 191.48L1893.74 194.1L1892.28 196.72C1900.35 201.225 1906.76 207.798 1911.5 216.533L1914.14 215.1ZM1893.74 194.1L1895.27 191.522C1886.39 186.234 1876.55 183.6 1865.84 183.6V186.6V189.6C1875.52 189.6 1884.29 191.966 1892.2 196.678L1893.74 194.1ZM1865.84 186.6V183.6C1855.15 183.6 1845.33 186.122 1836.45 191.195L1837.94 193.8L1839.43 196.405C1847.35 191.878 1856.13 189.6 1865.84 189.6V186.6ZM1837.94 193.8L1836.45 191.195C1827.53 196.295 1820.45 203.72 1815.2 213.367L1817.84 214.8L1820.47 216.233C1825.23 207.48 1831.55 200.905 1839.43 196.405L1837.94 193.8ZM1817.84 214.8L1815.2 213.367C1809.92 223.082 1807.34 234.392 1807.34 247.2H1810.34H1813.34C1813.34 235.208 1815.75 224.918 1820.47 216.233L1817.84 214.8ZM1810.34 247.2H1807.34C1807.34 260.201 1809.92 271.702 1815.19 281.609L1817.84 280.2L1820.49 278.791C1815.76 269.898 1813.34 259.399 1813.34 247.2H1810.34ZM1817.84 280.2L1815.2 281.633C1820.44 291.271 1827.51 298.782 1836.4 304.078L1837.94 301.5L1839.47 298.922C1831.57 294.218 1825.24 287.529 1820.47 278.767L1817.84 280.2ZM1837.94 301.5L1836.45 304.105C1845.33 309.178 1855.15 311.7 1865.84 311.7V308.7V305.7C1856.13 305.7 1847.35 303.422 1839.43 298.895L1837.94 301.5ZM1865.84 308.7V311.7C1876.53 311.7 1886.35 309.178 1895.23 304.105L1893.74 301.5L1892.25 298.895C1884.33 303.422 1875.55 305.7 1865.84 305.7V308.7ZM1893.74 301.5L1895.25 304.094C1904.35 298.802 1911.53 291.289 1916.77 281.633L1914.14 280.2L1911.5 278.767C1906.75 287.511 1900.33 294.198 1892.23 298.906L1893.74 301.5ZM1914.14 280.2L1916.79 281.609C1922.05 271.709 1924.64 260.31 1924.64 247.5H1921.64H1918.64C1918.64 259.49 1916.22 269.891 1911.49 278.791L1914.14 280.2Z" fill="#20128A" mask="url(#path-1-outside-1_147_2)"/>
<path d="M16 360.5V224.5M192.5 360.5L104.25 224.5M104.25 224.5L27.0332 105.503C23.7808 100.491 16 102.794 16 108.769V224.5M104.25 224.5H16" stroke="#16A34A" stroke-width="32" stroke-linecap="round"/>
<path d="M197.812 269.28L72.1197 78.2986C69.4941 74.309 72.3556 69 77.1317 69H217.037C220.526 69 223.279 71.9658 223.02 75.4453L208.808 266.427C208.383 272.138 200.961 274.064 197.812 269.28Z" stroke="#1E3A8A" stroke-width="32" stroke-linecap="round"/>
</svg>
