<svg width="1970" height="450" viewBox="0 0 1970 450" fill="none" xmlns="http://www.w3.org/2000/svg">
<path d="M576 330H548.7L438.9 163.5V330H411.6V120.6H438.9L548.7 286.8V120.6H576V330ZM768.338 165.6V330H741.038V305.7C735.838 314.1 728.538 320.7 719.138 325.5C709.938 330.1 699.738 332.4 688.538 332.4C675.738 332.4 664.238 329.8 654.038 324.6C643.838 319.2 635.738 311.2 629.738 300.6C623.938 290 621.038 277.1 621.038 261.9V165.6H648.038V258.3C648.038 274.5 652.138 287 660.338 295.8C668.538 304.4 679.738 308.7 693.938 308.7C708.538 308.7 720.038 304.2 728.438 295.2C736.838 286.2 741.038 273.1 741.038 255.9V165.6H768.338ZM872.632 332.7C860.032 332.7 848.732 330.6 838.732 326.4C828.732 322 820.832 316 815.032 308.4C809.232 300.6 806.032 291.7 805.432 281.7H833.632C834.432 289.9 838.232 296.6 845.032 301.8C852.032 307 861.132 309.6 872.332 309.6C882.732 309.6 890.932 307.3 896.932 302.7C902.932 298.1 905.932 292.3 905.932 285.3C905.932 278.1 902.732 272.8 896.332 269.4C889.932 265.8 880.032 262.3 866.632 258.9C854.432 255.7 844.432 252.5 836.632 249.3C829.032 245.9 822.432 241 816.832 234.6C811.432 228 808.732 219.4 808.732 208.8C808.732 200.4 811.232 192.7 816.232 185.7C821.232 178.7 828.332 173.2 837.532 169.2C846.732 165 857.232 162.9 869.032 162.9C887.232 162.9 901.932 167.5 913.132 176.7C924.332 185.9 930.332 198.5 931.132 214.5H903.832C903.232 205.9 899.732 199 893.332 193.8C887.132 188.6 878.732 186 868.132 186C858.332 186 850.532 188.1 844.732 192.3C838.932 196.5 836.032 202 836.032 208.8C836.032 214.2 837.732 218.7 841.132 222.3C844.732 225.7 849.132 228.5 854.332 230.7C859.732 232.7 867.132 235 876.532 237.6C888.332 240.8 897.932 244 905.332 247.2C912.732 250.2 919.032 254.8 924.232 261C929.632 267.2 932.432 275.3 932.632 285.3C932.632 294.3 930.132 302.4 925.132 309.6C920.132 316.8 913.032 322.5 903.832 326.7C894.832 330.7 884.432 332.7 872.632 332.7ZM960.97 247.2C960.97 230.4 964.37 215.7 971.17 203.1C977.97 190.3 987.27 180.4 999.07 173.4C1011.07 166.4 1024.37 162.9 1038.97 162.9C1053.37 162.9 1065.87 166 1076.47 172.2C1087.07 178.4 1094.97 186.2 1100.17 195.6V165.6H1127.77V330H1100.17V299.4C1094.77 309 1086.67 317 1075.87 323.4C1065.27 329.6 1052.87 332.7 1038.67 332.7C1024.07 332.7 1010.87 329.1 999.07 321.9C987.27 314.7 977.97 304.6 971.17 291.6C964.37 278.6 960.97 263.8 960.97 247.2ZM1100.17 247.5C1100.17 235.1 1097.67 224.3 1092.67 215.1C1087.67 205.9 1080.87 198.9 1072.27 194.1C1063.87 189.1 1054.57 186.6 1044.37 186.6C1034.17 186.6 1024.87 189 1016.47 193.8C1008.07 198.6 1001.37 205.6 996.37 214.8C991.37 224 988.87 234.8 988.87 247.2C988.87 259.8 991.37 270.8 996.37 280.2C1001.37 289.4 1008.07 296.5 1016.47 301.5C1024.87 306.3 1034.17 308.7 1044.37 308.7C1054.57 308.7 1063.87 306.3 1072.27 301.5C1080.87 296.5 1087.67 289.4 1092.67 280.2C1097.67 270.8 1100.17 259.9 1100.17 247.5ZM1297.5 283.5H1206.3L1189.5 330H1160.7L1236.3 122.1H1267.8L1343.1 330H1314.3L1297.5 283.5ZM1289.7 261.3L1251.9 155.7L1214.1 261.3H1289.7ZM1403.35 192.3C1408.15 182.9 1414.95 175.6 1423.75 170.4C1432.75 165.2 1443.65 162.6 1456.45 162.6V190.8H1449.25C1418.65 190.8 1403.35 207.4 1403.35 240.6V330H1376.05V165.6H1403.35V192.3ZM1521.27 188.1V285C1521.27 293 1522.97 298.7 1526.37 302.1C1529.77 305.3 1535.67 306.9 1544.07 306.9H1564.17V330H1539.57C1524.37 330 1512.97 326.5 1505.37 319.5C1497.77 312.5 1493.97 301 1493.97 285V188.1H1472.67V165.6H1493.97V124.2H1521.27V165.6H1564.17V188.1H1521.27ZM1678.84 162.6C1691.24 162.6 1702.44 165.3 1712.44 170.7C1722.44 175.9 1730.24 183.8 1735.84 194.4C1741.64 205 1744.54 217.9 1744.54 233.1V330H1717.54V237C1717.54 220.6 1713.44 208.1 1705.24 199.5C1697.04 190.7 1685.84 186.3 1671.64 186.3C1657.24 186.3 1645.74 190.8 1637.14 199.8C1628.74 208.8 1624.54 221.9 1624.54 239.1V330H1597.24V108H1624.54V189C1629.94 180.6 1637.34 174.1 1646.74 169.5C1656.34 164.9 1667.04 162.6 1678.84 162.6ZM1778.94 247.2C1778.94 230.4 1782.34 215.7 1789.14 203.1C1795.94 190.3 1805.24 180.4 1817.04 173.4C1829.04 166.4 1842.34 162.9 1856.94 162.9C1871.34 162.9 1883.84 166 1894.44 172.2C1905.04 178.4 1912.94 186.2 1918.14 195.6V165.6H1945.74V330H1918.14V299.4C1912.74 309 1904.64 317 1893.84 323.4C1883.24 329.6 1870.84 332.7 1856.64 332.7C1842.04 332.7 1828.84 329.1 1817.04 321.9C1805.24 314.7 1795.94 304.6 1789.14 291.6C1782.34 278.6 1778.94 263.8 1778.94 247.2ZM1918.14 247.5C1918.14 235.1 1915.64 224.3 1910.64 215.1C1905.64 205.9 1898.84 198.9 1890.24 194.1C1881.84 189.1 1872.54 186.6 1862.34 186.6C1852.14 186.6 1842.84 189 1834.44 193.8C1826.04 198.6 1819.34 205.6 1814.34 214.8C1809.34 224 1806.84 234.8 1806.84 247.2C1806.84 259.8 1809.34 270.8 1814.34 280.2C1819.34 289.4 1826.04 296.5 1834.44 301.5C1842.84 306.3 1852.14 308.7 1862.34 308.7C1872.54 308.7 1881.84 306.3 1890.24 301.5C1898.84 296.5 1905.64 289.4 1910.64 280.2C1915.64 270.8 1918.14 259.9 1918.14 247.5Z" fill="#20128A"/>
<path d="M12.5 360.5V224.5M189 360.5L100.75 224.5M100.75 224.5L23.5332 105.503C20.2808 100.491 12.5 102.794 12.5 108.769V224.5M100.75 224.5H12.5" stroke="#16A34A" stroke-width="25" stroke-linecap="round"/>
<path d="M194.312 269.28L68.6197 78.2986C65.9941 74.309 68.8556 69 73.6317 69H213.537C217.026 69 219.779 71.9658 219.52 75.4453L205.308 266.427C204.883 272.138 197.461 274.064 194.312 269.28Z" stroke="#1E3A8A" stroke-width="25" stroke-linecap="round"/>
</svg>
